<svg xmlns="http://www.w3.org/2000/svg" xmlns:xlink="http://www.w3.org/1999/xlink" viewBox="0 0 566.93 231.8"><defs><style>.cls-1{fill:none;}.cls-2{clip-path:url(#clip-path);}.cls-3{clip-path:url(#clip-path-2);}.cls-4{fill:#231f20;}.cls-5{fill:#d32030;fill-rule:evenodd;}</style><clipPath id="clip-path" transform="translate(-137.47 -181.94)"><rect class="cls-1" width="841.89" height="595.28"/></clipPath><clipPath id="clip-path-2" transform="translate(-137.47 -181.94)"><rect class="cls-1" x="-0.01" y="0.2" width="841.89" height="595.28"/></clipPath></defs><g id="Layer_2" data-name="Layer 2"><g id="Layer_1-2" data-name="Layer 1"><g class="cls-2"><g class="cls-3"><path class="cls-4" d="M491.56,361.87q6.17,0,9.08-4.36t2.89-13.2c0-5.9-1-10.3-2.89-13.17s-5-4.32-9.08-4.32-7.31,1.44-9.26,4.32-2.94,7.27-2.94,13.17,1,10.31,2.94,13.2,5,4.36,9.26,4.36m0-48.29a34.52,34.52,0,0,1,12.38,2.13,26.65,26.65,0,0,1,15.8,15.73A34.79,34.79,0,0,1,522,344.2a35.28,35.28,0,0,1-2.21,12.85,26.77,26.77,0,0,1-15.8,15.89,36.76,36.76,0,0,1-24.83,0,27.84,27.84,0,0,1-9.67-6.16,27.39,27.39,0,0,1-6.27-9.73A35.28,35.28,0,0,1,461,344.2a34.78,34.78,0,0,1,2.22-12.76,27.15,27.15,0,0,1,6.27-9.63,27.7,27.7,0,0,1,9.67-6.1A34.83,34.83,0,0,1,491.56,313.58Z" transform="translate(-137.47 -181.94)"/><rect class="cls-4" x="521.09" y="38.63" width="17.84" height="87.08"/><path class="cls-4" d="M633.64,269.72a15.47,15.47,0,0,0-.54-4.14,10.17,10.17,0,0,0-1.78-3.61,9.18,9.18,0,0,0-3.26-2.55,11.21,11.21,0,0,0-4.9-1,10.67,10.67,0,0,0-7.94,2.9q-2.88,2.91-3.8,8.38Zm-22.45,10.36q.87,7.49,4.55,10.84a13.52,13.52,0,0,0,9.5,3.38,17,17,0,0,0,5.35-.75,26.9,26.9,0,0,0,4-1.67l3.22-1.67a6.66,6.66,0,0,1,3.07-.75,3.68,3.68,0,0,1,3.22,1.56l5.18,6.39a26.73,26.73,0,0,1-5.94,5.14,31.19,31.19,0,0,1-6.57,3.11,36.15,36.15,0,0,1-6.73,1.55,50.25,50.25,0,0,1-6.43.44,33.54,33.54,0,0,1-11.76-2,27.16,27.16,0,0,1-9.61-6.06,28.72,28.72,0,0,1-6.5-10,37.45,37.45,0,0,1-2.4-13.93,31.49,31.49,0,0,1,2-11.33,27.62,27.62,0,0,1,15.14-15.77,30.43,30.43,0,0,1,12.28-2.36A30.75,30.75,0,0,1,633.68,248a23.62,23.62,0,0,1,8.46,5.35,24.3,24.3,0,0,1,5.52,8.6,31.45,31.45,0,0,1,2,11.54,26.36,26.36,0,0,1-.17,3.29,5.23,5.23,0,0,1-.64,2,2.4,2.4,0,0,1-1.23,1,5.88,5.88,0,0,1-2,.28Z" transform="translate(-137.47 -181.94)"/><path class="cls-4" d="M584.43,247.05v59.68h-11a4.2,4.2,0,0,1-4.37-3l-1-3.46a34.41,34.41,0,0,1-3.57,3,22,22,0,0,1-3.93,2.3,23.33,23.33,0,0,1-4.55,1.49,24.08,24.08,0,0,1-5.33.56,20.7,20.7,0,0,1-8.65-1.71,17.8,17.8,0,0,1-6.37-4.74,20.58,20.58,0,0,1-3.91-7.19,29.49,29.49,0,0,1-1.33-9.09V247.05h17.84v37.87a10.46,10.46,0,0,0,2,6.85,7.28,7.28,0,0,0,5.93,2.41,12.59,12.59,0,0,0,5.5-1.24,22.1,22.1,0,0,0,5-3.36V247.05Z" transform="translate(-137.47 -181.94)"/><path class="cls-4" d="M433,306.73V247.05H444a4.2,4.2,0,0,1,4.37,3l1,3.22a33.1,33.1,0,0,1,3.11-2.85,19.26,19.26,0,0,1,3.49-2.25,19.72,19.72,0,0,1,4-1.5,19.4,19.4,0,0,1,4.73-.53,14,14,0,0,1,9,2.78,17.31,17.31,0,0,1,5.37,7.46,17.83,17.83,0,0,1,3.67-4.72,19.56,19.56,0,0,1,4.66-3.16,22.75,22.75,0,0,1,5.29-1.79,27.74,27.74,0,0,1,5.55-.57,25.37,25.37,0,0,1,9.09,1.51,17.51,17.51,0,0,1,6.66,4.43,19.2,19.2,0,0,1,4,7.14,30.88,30.88,0,0,1,1.38,9.59v37.93H501.56V268.8q0-9.26-7.95-9.26a8.09,8.09,0,0,0-6,2.38c-1.59,1.59-2.4,3.89-2.4,6.88v37.93H467.37V268.8q0-5.12-2-7.19a7.92,7.92,0,0,0-5.93-2.07,10,10,0,0,0-4.57,1.09,16.49,16.49,0,0,0-4.06,2.94v43.16Z" transform="translate(-137.47 -181.94)"/><path class="cls-4" d="M404.18,282.44a60.36,60.36,0,0,0-8.81.92,21.31,21.31,0,0,0-5.46,1.73,6.5,6.5,0,0,0-2.78,2.36,5.57,5.57,0,0,0-.79,2.88c0,2,.55,3.45,1.67,4.28a8.16,8.16,0,0,0,4.89,1.24,14.06,14.06,0,0,0,6-1.21,18.38,18.38,0,0,0,5.24-3.91Zm-32.11-27.1a36.12,36.12,0,0,1,12-7.12,41.91,41.91,0,0,1,14.12-2.32,25.92,25.92,0,0,1,9.77,1.74,20.92,20.92,0,0,1,7.37,4.9A21.49,21.49,0,0,1,420,260a26.88,26.88,0,0,1,1.61,9.44v37.29h-8.17a8.32,8.32,0,0,1-3.82-.69,5.32,5.32,0,0,1-2.17-2.88l-1.26-3.28q-2.25,1.9-4.32,3.34a27.69,27.69,0,0,1-4.28,2.44,21,21,0,0,1-4.72,1.49,28.79,28.79,0,0,1-5.56.5,24.31,24.31,0,0,1-7.42-1.07,15.39,15.39,0,0,1-5.66-3.13,13.75,13.75,0,0,1-3.61-5.16,18.59,18.59,0,0,1-1.27-7.1,14.93,14.93,0,0,1,1.61-6.54,16.12,16.12,0,0,1,5.59-6A35.23,35.23,0,0,1,387.2,274a71.56,71.56,0,0,1,17-2.07v-2.53c0-3.5-.71-6-2.15-7.58a7.93,7.93,0,0,0-6.14-2.32,16.31,16.31,0,0,0-5.18.69,23.47,23.47,0,0,0-3.58,1.55c-1.06.58-2.1,1.1-3.09,1.56a8.48,8.48,0,0,1-3.57.69,5.16,5.16,0,0,1-3.11-.92,8.27,8.27,0,0,1-2.07-2.19Z" transform="translate(-137.47 -181.94)"/><path class="cls-4" d="M360,260.11a4.62,4.62,0,0,1-1.46,1.56,4,4,0,0,1-2,.46,6.3,6.3,0,0,1-2.53-.56l-2.72-1.17a31.51,31.51,0,0,0-3.32-1.19,15,15,0,0,0-4.2-.54,8.87,8.87,0,0,0-5.2,1.29,4.19,4.19,0,0,0-1.82,3.61,3.6,3.6,0,0,0,1.19,2.76,10.74,10.74,0,0,0,3.12,1.92,45.53,45.53,0,0,0,4.43,1.59c1.65.5,3.34,1.05,5.07,1.67a43.14,43.14,0,0,1,5.06,2.15,18.91,18.91,0,0,1,4.44,3,13.75,13.75,0,0,1,3.14,4.41,14.87,14.87,0,0,1,1.17,6.21,20.55,20.55,0,0,1-1.61,8.18A17.27,17.27,0,0,1,358,302a22.45,22.45,0,0,1-7.88,4.2,35.5,35.5,0,0,1-10.8,1.5,33.14,33.14,0,0,1-6.1-.57,43.14,43.14,0,0,1-5.89-1.56,32.18,32.18,0,0,1-5.28-2.34,22.52,22.52,0,0,1-4.14-2.9l4.14-6.56a5.41,5.41,0,0,1,1.77-1.82,5.07,5.07,0,0,1,2.72-.65,5.64,5.64,0,0,1,2.8.69l2.67,1.5a23,23,0,0,0,3.38,1.49,14.49,14.49,0,0,0,4.85.69,12.25,12.25,0,0,0,3.51-.44,6.13,6.13,0,0,0,2.3-1.17,4.6,4.6,0,0,0,1.67-3.57,3.84,3.84,0,0,0-1.21-2.93,10.52,10.52,0,0,0-3.16-2A40,40,0,0,0,338.9,284c-1.67-.48-3.38-1-5.11-1.63a41.25,41.25,0,0,1-5.08-2.23,17.25,17.25,0,0,1-4.47-3.28,15.28,15.28,0,0,1-3.17-4.85,19.58,19.58,0,0,1,.27-14.2,16.66,16.66,0,0,1,4.4-6,21.58,21.58,0,0,1,7.36-4.13,32.09,32.09,0,0,1,10.36-1.51,33.82,33.82,0,0,1,6.26.57,32.64,32.64,0,0,1,5.66,1.61,28,28,0,0,1,4.83,2.44,23.66,23.66,0,0,1,3.86,3.09Z" transform="translate(-137.47 -181.94)"/><path class="cls-4" d="M633.64,337.18a15.6,15.6,0,0,0-.54-4.15,10,10,0,0,0-1.78-3.6,9.07,9.07,0,0,0-3.26-2.55,11.06,11.06,0,0,0-4.9-1,10.7,10.7,0,0,0-7.94,2.89q-2.88,2.91-3.8,8.39Zm-22.45,10.36q.87,7.47,4.55,10.84a13.56,13.56,0,0,0,9.5,3.37,17,17,0,0,0,5.35-.75,26.91,26.91,0,0,0,4-1.66c1.17-.62,2.24-1.17,3.22-1.67a6.66,6.66,0,0,1,3.07-.75,3.69,3.69,0,0,1,3.22,1.55l5.18,6.39a26.47,26.47,0,0,1-5.94,5.14,30.7,30.7,0,0,1-6.57,3.11,34.63,34.63,0,0,1-6.73,1.55,50.25,50.25,0,0,1-6.43.44,33.54,33.54,0,0,1-11.76-2.05,27,27,0,0,1-9.61-6.06,28.68,28.68,0,0,1-6.5-10,37.49,37.49,0,0,1-2.4-13.93,31.59,31.59,0,0,1,2-11.34,27.62,27.62,0,0,1,15.14-15.77,30.6,30.6,0,0,1,12.28-2.36,31,31,0,0,1,10.86,1.84,23.64,23.64,0,0,1,8.46,5.36,24.26,24.26,0,0,1,5.52,8.59,31.51,31.51,0,0,1,2,11.55,26.18,26.18,0,0,1-.17,3.28,5.23,5.23,0,0,1-.64,2,2.35,2.35,0,0,1-1.23,1,5.85,5.85,0,0,1-2,.29Z" transform="translate(-137.47 -181.94)"/><path class="cls-4" d="M546.79,321a41.57,41.57,0,0,1,3.57-3,20.44,20.44,0,0,1,3.95-2.34,22.69,22.69,0,0,1,4.55-1.5,24,24,0,0,1,5.31-.54,21,21,0,0,1,8.67,1.69,17.73,17.73,0,0,1,6.35,4.72,20.25,20.25,0,0,1,3.92,7.19,30,30,0,0,1,1.32,9.08v37.92H566.59V336.26a10.47,10.47,0,0,0-2-6.83,7.25,7.25,0,0,0-5.93-2.44,12.36,12.36,0,0,0-5.49,1.23,22.21,22.21,0,0,0-5,3.38v42.58H530.33V314.5h11a4.2,4.2,0,0,1,4.38,3Z" transform="translate(-137.47 -181.94)"/><path class="cls-4" d="M439.13,337.18a16,16,0,0,0-.53-4.15,10.06,10.06,0,0,0-1.79-3.6,9,9,0,0,0-3.26-2.55,11,11,0,0,0-4.89-1q-5.07,0-7.94,2.89a15.15,15.15,0,0,0-3.8,8.39Zm-22.44,10.36q.85,7.47,4.54,10.84a13.58,13.58,0,0,0,9.5,3.37,16.92,16.92,0,0,0,5.35-.75,26.47,26.47,0,0,0,4-1.66c1.17-.62,2.25-1.17,3.23-1.67a6.59,6.59,0,0,1,3.06-.75,3.71,3.71,0,0,1,3.23,1.55l5.18,6.39a26.3,26.3,0,0,1-6,5.14,30.86,30.86,0,0,1-6.56,3.11,35,35,0,0,1-6.73,1.55,50.49,50.49,0,0,1-6.43.44,33.5,33.5,0,0,1-11.76-2.05,26.93,26.93,0,0,1-9.61-6.06,28.7,28.7,0,0,1-6.51-10,37.49,37.49,0,0,1-2.39-13.93,31.59,31.59,0,0,1,2-11.34A27.54,27.54,0,0,1,416,315.94a30.55,30.55,0,0,1,12.27-2.36,30.94,30.94,0,0,1,10.86,1.84,23.64,23.64,0,0,1,8.46,5.36,24.42,24.42,0,0,1,5.53,8.59,31.72,31.72,0,0,1,2,11.55,26.18,26.18,0,0,1-.17,3.28,5.41,5.41,0,0,1-.63,2,2.39,2.39,0,0,1-1.23,1,5.92,5.92,0,0,1-2,.29Z" transform="translate(-137.47 -181.94)"/><rect class="cls-4" x="210.21" y="132.56" width="17.84" height="60.6"/><rect class="cls-4" x="210.21" y="175.32" width="45.82" height="17.84"/><rect class="cls-4" x="521.11" y="132.56" width="17.84" height="59.68"/><rect class="cls-4" x="521.11" y="174.4" width="45.82" height="17.84"/><rect class="cls-4" x="521.09" y="132.56" width="17.84" height="10.44"/><path class="cls-5" d="M274.06,384.24l20.21,14.15-7.08,10.1a12.37,12.37,0,0,1-17.18,3l-10.1-7.08L239.7,390.29l-20.2-14.14-10.11-7.08a12.38,12.38,0,0,1-3-17.18l7.08-10.1-20.21-14.15L173,313.49l-20.2-14.15-10.11-7.07a12.38,12.38,0,0,1-3-17.18l7.08-10.1L167,279.14l20.2,14.15,20.21,14.14,20.21,14.15,14.15-20.2,14.14-20.21L270,261,280.14,268a12.38,12.38,0,0,1,3,17.18l-7.08,10.1-14.15,20.21-14.15,20.2h0l-14.15,20.21,20.21,14.15ZM203.35,184.16l10.11,7.08,20.2,14.14,20.21,14.15L264,226.61a12.38,12.38,0,0,1,3,17.18l-7.07,10.1-20.21-14.15-20.2-14.15-20.21-14.15-14.15,20.21h0l20.21,14.15L225.57,260l20.21,14.15-14.15,20.2-20.21-14.15L191.22,266,171,251.86l-10.1-7.08a12.37,12.37,0,0,1-3-17.18L165,217.5h0l14.15-20.21,7.08-10.1A12.36,12.36,0,0,1,203.35,184.16Z" transform="translate(-137.47 -181.94)"/></g></g></g></g></svg>