<svg xmlns="http://www.w3.org/2000/svg" xmlns:xlink="http://www.w3.org/1999/xlink" viewBox="0 0 583.27 409.25"><defs><style>.cls-1{fill:none;}.cls-2{clip-path:url(#clip-path);}.cls-3{clip-path:url(#clip-path-2);}.cls-4{font-size:178.23px;font-family:Roboto-Bold, Roboto;font-weight:700;}.cls-4,.cls-6{fill:#231f20;}.cls-5{fill:#d32030;fill-rule:evenodd;}.cls-6{font-size:49.46px;font-family:RobotoMono-Regular, Roboto Mono;}</style><clipPath id="clip-path" transform="translate(-132.24 -99.68)"><rect class="cls-1" width="841.89" height="595.28"/></clipPath><clipPath id="clip-path-2" transform="translate(-132.24 -99.68)"><rect class="cls-1" x="-0.01" y="0.2" width="841.89" height="595.28"/></clipPath></defs><g id="Layer_2" data-name="Layer 2"><g id="Layer_1-2" data-name="Layer 1"><g class="cls-2"><g class="cls-3"><text class="cls-4" transform="translate(0 327.18)">s</text><text class="cls-4" transform="translate(91.91 327.18)">amu</text><text class="cls-4" transform="translate(442.46 327.18)">el</text><path class="cls-5" d="M357.15,99.68h21.26v63.77H335.89V120.94a21.32,21.32,0,0,1,21.26-21.26m106.3,0h21.26A21.32,21.32,0,0,1,506,120.93v21.26H442.19v85h-85A21.32,21.32,0,0,1,335.89,206V184.71h63.78v-85ZM335.89,248.49H463.45v-85H506v106.3A21.33,21.33,0,0,1,484.71,291H335.89Z" transform="translate(-132.24 -99.68)"/><text class="cls-6" transform="translate(124.67 395.84)">L E O N E L</text></g></g></g></g></svg>