<svg xmlns="http://www.w3.org/2000/svg" xmlns:xlink="http://www.w3.org/1999/xlink" viewBox="0 0 570.8 155.25"><defs><style>.cls-1{fill:none;}.cls-2{clip-path:url(#clip-path);}.cls-3{clip-path:url(#clip-path-2);}.cls-4{font-size:131.92px;font-family:Roboto-Bold, Roboto;font-weight:700;}.cls-4,.cls-6{fill:#231f20;}.cls-5{fill:#d32030;fill-rule:evenodd;}.cls-6{font-size:25.02px;font-family:Roboto-Light, Roboto;font-weight:300;}</style><clipPath id="clip-path" transform="translate(-133.6 -217.29)"><rect class="cls-1" width="841.89" height="595.28"/></clipPath><clipPath id="clip-path-2" transform="translate(-133.6 -217.29)"><rect class="cls-1" x="-0.01" y="0.2" width="841.89" height="595.28"/></clipPath></defs><g id="Layer_2" data-name="Layer 2"><g id="Layer_1-2" data-name="Layer 1"><g class="cls-2"><g class="cls-3"><text class="cls-4" transform="translate(0 112.85)">samu</text><text class="cls-4" transform="translate(327.48 112.85)">el</text><path class="cls-5" d="M598.33,229.66h15.16v45.45H583.18v-30.3a15.2,15.2,0,0,1,15.15-15.15m75.76,0h15.15a15.19,15.19,0,0,1,15.15,15.15V260H658.94v60.61H598.33a15.2,15.2,0,0,1-15.15-15.15V290.26h45.46v-60.6ZM583.18,335.72h90.91V275.11h30.3v75.76A15.19,15.19,0,0,1,689.24,366H583.18Z" transform="translate(-133.6 -217.29)"/><text class="cls-6" transform="translate(85.52 148.48)">DESENV</text><text class="cls-6" transform="translate(177.87 148.48)">OL</text><text class="cls-6" transform="translate(206.35 148.48)">VEDOR FRON</text><text class="cls-6" transform="translate(355.78 148.48)">T END</text></g></g></g></g></svg>