<svg xmlns="http://www.w3.org/2000/svg" viewBox="0 0 566.91 178.18"><g transform="translate(-17530 1599.28)"><path d="M199.93,257.39a15.628,15.628,0,0,0-.53-4.1,9.92,9.92,0,0,0-1.77-3.56,8.9,8.9,0,0,0-3.22-2.53,11.08,11.08,0,0,0-4.84-1c-3.34,0-6,.94-7.86,2.86a15,15,0,0,0-3.75,8.29Zm-22.2,10.25q.86,7.39,4.5,10.72a13.39,13.39,0,0,0,9.39,3.34,16.879,16.879,0,0,0,5.29-.74,26.367,26.367,0,0,0,4-1.65c1.16-.61,2.22-1.16,3.19-1.65a6.58,6.58,0,0,1,3-.74,3.63,3.63,0,0,1,3.19,1.54l5.12,6.31a26,26,0,0,1-5.88,5.09,30.429,30.429,0,0,1-6.49,3.07,34.831,34.831,0,0,1-6.66,1.54,49.166,49.166,0,0,1-6.35.44,33.309,33.309,0,0,1-11.64-2,26.71,26.71,0,0,1-9.5-6,28.41,28.41,0,0,1-6.44-9.9,37.13,37.13,0,0,1-2.37-13.78,31.36,31.36,0,0,1,2-11.22,27.3,27.3,0,0,1,15-15.59,32.58,32.58,0,0,1,22.89-.51,23.29,23.29,0,0,1,8.37,5.29,24.12,24.12,0,0,1,5.46,8.5,31.26,31.26,0,0,1,2,11.42,23.773,23.773,0,0,1-.18,3.25,5.13,5.13,0,0,1-.62,2,2.33,2.33,0,0,1-1.22,1,5.73,5.73,0,0,1-2,.29ZM278.09,235v59H267.16a4.16,4.16,0,0,1-4.33-3l-1-3.42a34.631,34.631,0,0,1-3.53,3,22.259,22.259,0,0,1-3.89,2.28,23.738,23.738,0,0,1-4.5,1.48,24.22,24.22,0,0,1-5.27.55,20.59,20.59,0,0,1-8.56-1.69,17.65,17.65,0,0,1-6.3-4.69,20.38,20.38,0,0,1-3.87-7.11,29.3,29.3,0,0,1-1.31-9V235h17.65v37.46a10.306,10.306,0,0,0,2,6.78,7.2,7.2,0,0,0,5.86,2.39,12.34,12.34,0,0,0,5.45-1.24,21.26,21.26,0,0,0,4.91-3.32V235ZM240.4,338.29a15.509,15.509,0,0,0,.54,4.09A10,10,0,0,0,242.7,346a9,9,0,0,0,3.23,2.53,11.08,11.08,0,0,0,4.84,1,10.58,10.58,0,0,0,7.85-2.86,15,15,0,0,0,3.76-8.29ZM262.61,328q-.86-7.4-4.5-10.72a13.39,13.39,0,0,0-9.39-3.34,17,17,0,0,0-5.3.74,25.8,25.8,0,0,0-4,1.65c-1.16.61-2.22,1.16-3.19,1.65a6.62,6.62,0,0,1-3,.74,3.66,3.66,0,0,1-3.19-1.54l-5.12-6.31a26.211,26.211,0,0,1,5.88-5.09,30.651,30.651,0,0,1,6.49-3.07,34.833,34.833,0,0,1,6.66-1.54,49.315,49.315,0,0,1,6.36-.44,33.22,33.22,0,0,1,11.63,2,26.75,26.75,0,0,1,9.51,6,28.38,28.38,0,0,1,6.43,9.9,36.931,36.931,0,0,1,2.37,13.78,31.09,31.09,0,0,1-2,11.21,27.2,27.2,0,0,1-15,15.6,32.55,32.55,0,0,1-22.88.51,23.25,23.25,0,0,1-8.37-5.29,24,24,0,0,1-5.47-8.5,31.26,31.26,0,0,1-1.95-11.42,25.762,25.762,0,0,1,.17-3.25,5,5,0,0,1,.63-2,2.38,2.38,0,0,1,1.21-1,5.79,5.79,0,0,1,2-.28Zm-85.16-20a42.435,42.435,0,0,1,3.52-3,21.431,21.431,0,0,1,3.91-2.32,24.47,24.47,0,0,1,4.5-1.48,24.1,24.1,0,0,1,5.26-.53,20.67,20.67,0,0,1,8.57,1.67,17.67,17.67,0,0,1,6.28,4.67,20.08,20.08,0,0,1,3.87,7.12,29.34,29.34,0,0,1,1.31,9v37.52H197V323.2a10.33,10.33,0,0,0-2-6.75,7.11,7.11,0,0,0-5.86-2.41,12.4,12.4,0,0,0-5.43,1.21,22.351,22.351,0,0,0-4.93,3.34v42.13H161.16v-59h10.93a4.15,4.15,0,0,1,4.33,3Zm127.91-99.28H135V386.9H305.36Z" transform="translate(17395 -1808)" fill="#e24b52" fill-rule="evenodd"/><path d="M491.39,348.53q6.09,0,9-4.3c1.92-2.87,2.86-7.21,2.86-13.06s-.94-10.19-2.86-13-4.92-4.27-9-4.27-7.23,1.42-9.16,4.27-2.9,7.19-2.9,13,1,10.19,2.9,13.06,5,4.3,9.16,4.3m0-47.76a34.18,34.18,0,0,1,12.24,2.11,26.84,26.84,0,0,1,9.49,6,27.109,27.109,0,0,1,6.15,9.53,34.479,34.479,0,0,1,2.18,12.62,35,35,0,0,1-2.18,12.71,27.311,27.311,0,0,1-6.15,9.62,27,27,0,0,1-9.49,6.09,33.54,33.54,0,0,1-12.24,2.15,33.881,33.881,0,0,1-12.31-2.15,27.36,27.36,0,0,1-9.56-6.09,26.891,26.891,0,0,1-6.21-9.62,35,35,0,0,1-2.2-12.71,34.48,34.48,0,0,1,2.2-12.62,26.7,26.7,0,0,1,6.21-9.53,27.22,27.22,0,0,1,9.56-6A34.53,34.53,0,0,1,491.39,300.77Z" transform="translate(17395 -1808)" fill="#fff"/><rect width="17.65" height="86.13" transform="translate(18051.57 -1599.22)" fill="#fff"/><path d="M631.92,257.39a15.626,15.626,0,0,0-.53-4.1,10.06,10.06,0,0,0-1.76-3.56,9,9,0,0,0-3.23-2.53,11.08,11.08,0,0,0-4.84-1c-3.34,0-6,.94-7.85,2.86a15,15,0,0,0-3.76,8.29Zm-22.2,10.25q.85,7.39,4.5,10.72a13.39,13.39,0,0,0,9.39,3.34,17,17,0,0,0,5.3-.74,26.226,26.226,0,0,0,4-1.65c1.16-.61,2.22-1.16,3.19-1.65a6.611,6.611,0,0,1,3-.74,3.63,3.63,0,0,1,3.19,1.54l5.13,6.31a26.247,26.247,0,0,1-5.89,5.09,30.43,30.43,0,0,1-6.49,3.07,34.834,34.834,0,0,1-6.66,1.54,50.993,50.993,0,0,1-6.35.44,33.219,33.219,0,0,1-11.63-2,26.66,26.66,0,0,1-9.51-6,28.381,28.381,0,0,1-6.43-9.9,36.932,36.932,0,0,1-2.37-13.78,31,31,0,0,1,2-11.21,27.2,27.2,0,0,1,15-15.6,32.55,32.55,0,0,1,22.88-.51,23.21,23.21,0,0,1,8.37,5.29,24.119,24.119,0,0,1,5.46,8.5,31.259,31.259,0,0,1,2,11.42,25.767,25.767,0,0,1-.17,3.25,5.3,5.3,0,0,1-.63,2,2.31,2.31,0,0,1-1.21,1,5.829,5.829,0,0,1-2,.29Z" transform="translate(17395 -1808)" fill="#fff"/><path d="M583.25,235v59H572.32a4.14,4.14,0,0,1-4.32-3l-1-3.42a33.572,33.572,0,0,1-3.53,3,21.55,21.55,0,0,1-3.89,2.28,23.283,23.283,0,0,1-4.5,1.48,24.147,24.147,0,0,1-5.27.55,20.62,20.62,0,0,1-8.56-1.69,17.74,17.74,0,0,1-6.3-4.69,20.381,20.381,0,0,1-3.87-7.11,29.609,29.609,0,0,1-1.31-9V235h17.65v37.46a10.306,10.306,0,0,0,2,6.78,7.2,7.2,0,0,0,5.86,2.39,12.34,12.34,0,0,0,5.45-1.24A21.257,21.257,0,0,0,565.6,277V235Z" transform="translate(17395 -1808)" fill="#fff"/><path d="M433.42,294V235h10.93a4.15,4.15,0,0,1,4.33,3l1,3.19a33.6,33.6,0,0,1,3.07-2.82,19.52,19.52,0,0,1,7.44-3.7,18.589,18.589,0,0,1,4.69-.54,13.85,13.85,0,0,1,8.86,2.76,17.16,17.16,0,0,1,5.31,7.38,17.3,17.3,0,0,1,3.63-4.67,19.161,19.161,0,0,1,4.61-3.13,22.241,22.241,0,0,1,5.23-1.77,27.079,27.079,0,0,1,5.49-.57,25.07,25.07,0,0,1,9,1.5,17.24,17.24,0,0,1,6.59,4.39,18.94,18.94,0,0,1,4,7.05,30.572,30.572,0,0,1,1.37,9.49V294H501.28V256.48q0-9.17-7.86-9.16a8.06,8.06,0,0,0-5.94,2.35c-1.57,1.58-2.37,3.85-2.37,6.81V294H467.47V256.48q0-5.07-2-7.11c-1.32-1.37-3.28-2.05-5.86-2.05a9.9,9.9,0,0,0-4.52,1.08,16.568,16.568,0,0,0-4,2.9V294Z" transform="translate(17395 -1808)" fill="#fff"/><path d="M405,270a60.531,60.531,0,0,0-8.71.91,21.6,21.6,0,0,0-5.41,1.71,6.61,6.61,0,0,0-2.75,2.34,5.53,5.53,0,0,0-.77,2.84q0,3,1.65,4.23a8,8,0,0,0,4.83,1.24,14,14,0,0,0,6-1.2,18.218,18.218,0,0,0,5.18-3.87Zm-31.8-26.84a36,36,0,0,1,11.88-7,41.67,41.67,0,0,1,14-2.29,25.74,25.74,0,0,1,9.66,1.72,20.82,20.82,0,0,1,7.29,4.84,21.22,21.22,0,0,1,4.57,7.38,26.58,26.58,0,0,1,1.59,9.34V294h-8.08a8.19,8.19,0,0,1-3.78-.69,5.21,5.21,0,0,1-2.14-2.84l-1.25-3.25c-1.48,1.25-2.91,2.35-4.27,3.3a26.7,26.7,0,0,1-4.23,2.41,20.531,20.531,0,0,1-4.67,1.48,28.163,28.163,0,0,1-5.5.5,23.85,23.85,0,0,1-7.35-1.07,15.09,15.09,0,0,1-5.59-3.09,13.629,13.629,0,0,1-3.57-5.1,18.25,18.25,0,0,1-1.25-7,14.721,14.721,0,0,1,1.59-6.47,15.84,15.84,0,0,1,5.52-6,35.339,35.339,0,0,1,10.59-4.52A71.19,71.19,0,0,1,405,259.61v-2.5c0-3.45-.7-6-2.12-7.5a7.91,7.91,0,0,0-6.07-2.29,16.29,16.29,0,0,0-5.13.68,23.507,23.507,0,0,0-3.55,1.54c-1,.57-2.07,1.08-3,1.53a8.29,8.29,0,0,1-3.53.69,5.1,5.1,0,0,1-3.07-.91,7.821,7.821,0,0,1-2.05-2.17Z" transform="translate(17395 -1808)" fill="#fff"/><path d="M361.3,247.89a4.46,4.46,0,0,1-1.44,1.53,3.78,3.78,0,0,1-2,.46,6.32,6.32,0,0,1-2.51-.55l-2.69-1.16A30.94,30.94,0,0,0,349.4,247a14.62,14.62,0,0,0-4.15-.53,8.77,8.77,0,0,0-5.14,1.27,4.16,4.16,0,0,0-1.81,3.57,3.56,3.56,0,0,0,1.18,2.73,10.46,10.46,0,0,0,3.09,1.9,43.753,43.753,0,0,0,4.39,1.58q2.44.74,5,1.65a44,44,0,0,1,5,2.12,18.6,18.6,0,0,1,4.39,3,13.68,13.68,0,0,1,3.11,4.36,14.74,14.74,0,0,1,1.16,6.15,20.139,20.139,0,0,1-1.6,8.09,17.07,17.07,0,0,1-4.74,6.37,22.67,22.67,0,0,1-7.8,4.16,35.38,35.38,0,0,1-10.68,1.48,32.584,32.584,0,0,1-6-.57,41.109,41.109,0,0,1-5.8-1.53,31.44,31.44,0,0,1-5.22-2.31,23.45,23.45,0,0,1-4.1-2.87l4.1-6.49a5.21,5.21,0,0,1,1.75-1.8,5,5,0,0,1,2.69-.65,5.55,5.55,0,0,1,2.77.69l2.64,1.48a22.941,22.941,0,0,0,3.34,1.48,14.5,14.5,0,0,0,4.8.68,12,12,0,0,0,3.47-.44,6.1,6.1,0,0,0,2.28-1.15,4.76,4.76,0,0,0,1.25-1.66,4.53,4.53,0,0,0,.4-1.87,3.84,3.84,0,0,0-1.2-2.91,10.31,10.31,0,0,0-3.13-2,39.087,39.087,0,0,0-4.4-1.54c-1.65-.47-3.34-1-5.05-1.61a42.633,42.633,0,0,1-5-2.2,17.53,17.53,0,0,1-4.42-3.25,15.061,15.061,0,0,1-3.13-4.8,19.3,19.3,0,0,1,.27-14,16.61,16.61,0,0,1,4.34-5.94,21.51,21.51,0,0,1,7.29-4.08,31.68,31.68,0,0,1,10.25-1.5,33,33,0,0,1,6.18.57,31.122,31.122,0,0,1,5.6,1.6,26.381,26.381,0,0,1,4.78,2.41,23.562,23.562,0,0,1,3.82,3.05Z" transform="translate(17395 -1808)" fill="#fff"/><path d="M631.92,324.11a15.627,15.627,0,0,0-.53-4.1,10.06,10.06,0,0,0-1.76-3.56,9,9,0,0,0-3.23-2.53,11.08,11.08,0,0,0-4.84-1c-3.34,0-6,.94-7.85,2.86a15,15,0,0,0-3.76,8.29Zm-22.2,10.25q.85,7.39,4.5,10.72a13.39,13.39,0,0,0,9.39,3.34,17,17,0,0,0,5.3-.74,26.235,26.235,0,0,0,4-1.65c1.16-.61,2.22-1.16,3.19-1.65a6.49,6.49,0,0,1,3-.74,3.65,3.65,0,0,1,3.19,1.53l5.13,6.32a26.247,26.247,0,0,1-5.89,5.09,30.43,30.43,0,0,1-6.49,3.07,34.829,34.829,0,0,1-6.66,1.54,51,51,0,0,1-6.35.44,33.22,33.22,0,0,1-11.63-2,26.659,26.659,0,0,1-9.51-6,28.339,28.339,0,0,1-6.43-9.91,36.838,36.838,0,0,1-2.37-13.77,31.139,31.139,0,0,1,2-11.22,27.22,27.22,0,0,1,15-15.59,30.079,30.079,0,0,1,12.14-2.34A30.53,30.53,0,0,1,632,302.59a23.36,23.36,0,0,1,8.37,5.3,24.121,24.121,0,0,1,5.46,8.5,31.259,31.259,0,0,1,2,11.42,25.779,25.779,0,0,1-.17,3.25,5.3,5.3,0,0,1-.63,2,2.359,2.359,0,0,1-1.21,1,5.83,5.83,0,0,1-2,.29Z" transform="translate(17395 -1808)" fill="#fff"/><path d="M546,308.06a44.247,44.247,0,0,1,3.53-3,21.432,21.432,0,0,1,3.91-2.32,23.513,23.513,0,0,1,4.5-1.48,24.068,24.068,0,0,1,5.25-.53,20.72,20.72,0,0,1,8.58,1.67,17.76,17.76,0,0,1,6.28,4.67,20.081,20.081,0,0,1,3.87,7.12,29.339,29.339,0,0,1,1.31,9v37.52H565.6V323.2a10.33,10.33,0,0,0-2-6.75,7.13,7.13,0,0,0-5.86-2.41,12.37,12.37,0,0,0-5.43,1.21,22.12,22.12,0,0,0-4.93,3.34v42.13H529.74v-59h10.93a4.16,4.16,0,0,1,4.33,3Z" transform="translate(17395 -1808)" fill="#fff"/><path d="M439.54,324.11A15.641,15.641,0,0,0,439,320a9.9,9.9,0,0,0-1.76-3.56,9,9,0,0,0-3.23-2.53,11,11,0,0,0-4.84-1c-3.33,0-5.95.94-7.85,2.86a15,15,0,0,0-3.76,8.29Zm-22.21,10.25q.85,7.39,4.5,10.72a13.39,13.39,0,0,0,9.39,3.34,17,17,0,0,0,5.3-.74,25.8,25.8,0,0,0,4-1.65c1.16-.61,2.22-1.16,3.19-1.65a6.53,6.53,0,0,1,3-.74,3.67,3.67,0,0,1,3.19,1.53l5.12,6.32a26.209,26.209,0,0,1-5.88,5.09,30.649,30.649,0,0,1-6.49,3.07,34.826,34.826,0,0,1-6.66,1.54,51.172,51.172,0,0,1-6.36.44,33.22,33.22,0,0,1-11.63-2,26.75,26.75,0,0,1-9.51-6,28.339,28.339,0,0,1-6.43-9.91,36.841,36.841,0,0,1-2.37-13.77,31.14,31.14,0,0,1,2-11.22,27.22,27.22,0,0,1,15-15.59,30.15,30.15,0,0,1,12.14-2.34,30.53,30.53,0,0,1,10.74,1.82,23.28,23.28,0,0,1,8.37,5.3,24.14,24.14,0,0,1,5.47,8.5,31.259,31.259,0,0,1,1.95,11.42,25.767,25.767,0,0,1-.17,3.25,5,5,0,0,1-.63,2,2.36,2.36,0,0,1-1.21,1,5.771,5.771,0,0,1-2,.29Z" transform="translate(17395 -1808)" fill="#fff"/><rect width="17.65" height="59.94" transform="translate(17744.08 -1506.32)" fill="#fff"/><rect width="45.32" height="17.65" transform="translate(17744.08 -1464.02)" fill="#fff"/><rect width="17.65" height="59.03" transform="translate(18051.59 -1506.32)" fill="#fff"/><rect width="45.32" height="17.65" transform="translate(18051.59 -1464.93)" fill="#fff"/><rect width="17.65" height="10.33" transform="translate(18051.57 -1506.32)" fill="#fff"/></g></svg>
