<svg viewBox="1 -80 511.999 511" xmlns="http://www.w3.org/2000/svg"><path d="m159.808594.5h-128.261719c-17.394531 0-31.546875 14.152344-31.546875 31.546875v288.582031c0 17.394532 14.152344 31.546875 31.546875 31.546875h128.257813c17.398437 0 31.550781-14.152343 31.550781-31.546875v-288.582031c0-17.394531-14.152344-31.546875-31.546875-31.546875zm-128.261719 15h128.257813c9.125 0 16.550781 7.421875 16.550781 16.546875v273.066406h-161.355469v-273.066406c0-9.125 7.421875-16.546875 16.546875-16.546875zm128.261719 321.675781h-128.261719c-9.125 0-16.546875-7.421875-16.546875-16.546875v-.515625h161.355469v.515625c0 9.125-7.421875 16.546875-16.546875 16.546875zm0 0"/><path d="m480.453125.5h-128.261719c-17.394531 0-31.546875 14.152344-31.546875 31.546875v288.582031c0 17.394532 14.152344 31.546875 31.546875 31.546875h128.257813c17.398437 0 31.550781-14.152343 31.550781-31.546875v-288.582031c0-17.394531-14.152344-31.546875-31.546875-31.546875zm-128.261719 15h128.257813c9.125 0 16.550781 7.421875 16.550781 16.546875v273.066406h-161.355469v-273.066406c0-9.125 7.421875-16.546875 16.546875-16.546875zm128.261719 321.675781h-128.261719c-9.125 0-16.546875-7.421875-16.546875-16.546875v-.515625h161.355469v.515625c0 9.125-7.421875 16.546875-16.546875 16.546875zm0 0"/><path d="m39.5625 151.773438h112.226562c4.144532 0 7.5-3.355469 7.5-7.5v-96.191407c0-4.144531-3.355468-7.5-7.5-7.5h-112.226562c-4.140625 0-7.5 3.355469-7.5 7.5v40.078125c0 4.144532 3.359375 7.5 7.5 7.5 4.144531 0 7.5-3.355468 7.5-7.5v-23.773437l37.089844 31.789062-37.089844 31.792969v-7.742188c0-4.144531-3.355469-7.5-7.5-7.5-4.140625 0-7.5 3.355469-7.5 7.5v24.046876c0 4.144531 3.359375 7.5 7.5 7.5zm67.640625-55.597657 37.085937-31.789062v63.582031zm-47.363281-40.59375h71.675781l-35.839844 30.71875zm71.675781 81.191407h-71.675781l35.839844-30.71875zm0 0"/><path d="m39.5625 280.03125h112.226562c4.144532 0 7.5-3.359375 7.5-7.5v-96.191406c0-4.144532-3.355468-7.5-7.5-7.5h-112.226562c-4.140625 0-7.5 3.355468-7.5 7.5v96.191406c0 4.140625 3.359375 7.5 7.5 7.5zm104.726562-23.804688-37.085937-31.792968 37.085937-31.789063zm-12.773437 8.804688h-71.675781l35.839844-30.71875zm-35.839844-50.472656-35.835937-30.71875h71.675781zm-11.523437 9.875-37.089844 31.792968v-63.582031zm0 0"/><path d="m360.210938 151.773438h112.222656c4.144531 0 7.5-3.355469 7.5-7.5v-48.097657c0-4.140625-3.355469-7.5-7.5-7.5-4.140625 0-7.5 3.359375-7.5 7.5v40.597657h-97.222656v-81.191407h97.222656v8.53125c0 4.140625 3.359375 7.5 7.5 7.5 4.144531 0 7.5-3.359375 7.5-7.5v-16.03125c0-4.144531-3.355469-7.5-7.5-7.5h-112.222656c-4.144532 0-7.5 3.355469-7.5 7.5v96.191407c0 4.144531 3.355468 7.5 7.5 7.5zm0 0"/><path d="m472.4375 168.839844h-72.148438c-4.140624 0-7.5 3.355468-7.5 7.5 0 4.140625 3.359376 7.5 7.5 7.5h72.148438c4.140625 0 7.5-3.359375 7.5-7.5 0-4.144532-3.359375-7.5-7.5-7.5zm0 0"/><path d="m472.4375 200.902344h-72.148438c-4.140624 0-7.5 3.359375-7.5 7.5s3.359376 7.5 7.5 7.5h72.148438c4.140625 0 7.5-3.359375 7.5-7.5s-3.359375-7.5-7.5-7.5zm0 0"/><path d="m472.4375 265.03125h-72.148438c-4.140624 0-7.5 3.359375-7.5 7.5s3.359376 7.5 7.5 7.5h72.148438c4.140625 0 7.5-3.359375 7.5-7.5s-3.359375-7.5-7.5-7.5zm0 0"/><path d="m472.4375 232.96875h-72.148438c-4.140624 0-7.5 3.355469-7.5 7.5 0 4.140625 3.359376 7.5 7.5 7.5h72.148438c4.140625 0 7.5-3.359375 7.5-7.5 0-4.144531-3.359375-7.5-7.5-7.5zm0 0"/><path d="m360.210938 183.839844h8.015624c4.140626 0 7.5-3.359375 7.5-7.5 0-4.144532-3.359374-7.5-7.5-7.5h-8.015624c-4.144532 0-7.5 3.355468-7.5 7.5 0 4.140625 3.355468 7.5 7.5 7.5zm0 0"/><path d="m360.210938 215.902344h8.015624c4.140626 0 7.5-3.359375 7.5-7.5s-3.359374-7.5-7.5-7.5h-8.015624c-4.144532 0-7.5 3.359375-7.5 7.5s3.355468 7.5 7.5 7.5zm0 0"/><path d="m360.210938 280.03125h8.015624c4.140626 0 7.5-3.359375 7.5-7.5s-3.359374-7.5-7.5-7.5h-8.015624c-4.144532 0-7.5 3.359375-7.5 7.5s3.355468 7.5 7.5 7.5zm0 0"/><path d="m360.210938 247.96875h8.015624c4.140626 0 7.5-3.359375 7.5-7.5 0-4.144531-3.359374-7.5-7.5-7.5h-8.015624c-4.144532 0-7.5 3.355469-7.5 7.5 0 4.140625 3.355468 7.5 7.5 7.5zm0 0"/><path d="m299.9375 169.90625-40.078125-24.046875c-3.554687-2.132813-8.160156-.980469-10.292969 2.570313-2.128906 3.554687-.976562 8.160156 2.574219 10.292968l16.863281 10.117188h-53.085937c-4.140625 0-7.5 3.355468-7.5 7.5 0 4.140625 3.359375 7.5 7.5 7.5h53.085937l-16.863281 10.117187c-3.550781 2.128907-4.703125 6.738281-2.574219 10.289063 1.40625 2.34375 3.890625 3.640625 6.441406 3.640625 1.3125 0 2.640626-.34375 3.851563-1.070313l40.078125-24.046875c2.261719-1.355469 3.640625-3.796875 3.640625-6.429687 0-2.636719-1.378906-5.078125-3.640625-6.433594zm0 0"/></svg>
