<svg id="Capa_1" enable-background="new 0 0 508 508" viewBox="0 0 508 508" xmlns="http://www.w3.org/2000/svg"><g><path d="m77.007 292h130c5.522 0 10-4.477 10-10v-172c0-5.523-4.478-10-10-10h-130c-5.522 0-10 4.477-10 10v172c0 5.523 4.478 10 10 10zm20.093-20 44.907-59.415 44.907 59.415zm99.907-19.815-42.465-56.185 42.465-56.185zm-10.093-132.185-44.907 59.415-44.907-59.415zm-99.907 19.815 42.465 56.185-42.465 56.185zm150 66.185c0-5.523 4.478-10 10-10h64c5.522 0 10 4.477 10 10s-4.478 10-10 10h-64c-5.522 0-10-4.477-10-10zm0-96c0-5.523 4.478-10 10-10h104c5.522 0 10 4.477 10 10s-4.478 10-10 10h-104c-5.522 0-10-4.477-10-10zm0 48c0-5.523 4.478-10 10-10h104c5.522 0 10 4.477 10 10s-4.478 10-10 10h-104c-5.522 0-10-4.477-10-10zm190 340v-227.431l45.214-45.214c11.695-11.697 11.695-30.729 0-42.426l-14.143-14.142c-8.387-8.387-20.548-10.759-31.071-7.116v-151.671c0-5.523-4.477-10-10-10h-380c-5.523 0-10 4.477-10 10v488c0 5.5 4.5 10 10 10h144.642c5.319 0 9.974-4.001 10.334-9.307.395-5.822-4.237-10.693-9.976-10.693h-135v-408h360v97.431l-134.569 134.569h-195.431c-5.523 0-10 4.477-10 10v136c0 5.523 4.477 10 10 10h300c5.523 0 10-4.477 10-10v-136c0-3.126-1.436-5.915-3.682-7.749l23.682-23.682v197.431h-135c-5.521 0-10 4.49-10 10s4.479 10 10 10h145c5.523 0 10-4.477 10-10zm-340-438h-40v-40h40zm20 0v-40h300v40zm145.431 272-15.261 15.261c-1.137 1.138-1.983 2.532-2.467 4.066l-8.597 27.288-102.827-46.615zm26.695 56.65-39.092 12.317 12.316-39.093zm-59.074 9.179-4.865 15.44c-2.413 7.747 4.748 14.859 12.543 12.542l31.886-10.046 71.106 32.235h-243.722v-110.487zm146.948 44.658-78.806-35.725c3.031-.891 4.407-1.795 5.545-2.932l71.83-71.83h1.431zm-72.977-67.225-28.285-28.285 107.48-107.479 28.284 28.284zm121.622-121.623-28.284-28.284 14.142-14.142 28.284 28.284zm42.427-42.426-14.143 14.143-28.284-28.284 14.142-14.142c3.899-3.9 10.244-3.898 14.142 0l14.143 14.142c3.898 3.898 3.898 10.242 0 14.141zm-221.072 286.787c0 5.51-4.49 10-10 10s-10-4.49-10-10 4.49-10 10-10 10 4.49 10 10z"/></g></svg>
